<svg width="50" height="50" viewBox="0 0 50 50" fill="none" xmlns="http://www.w3.org/2000/svg">
<path d="M8 3.01172C6.31261 3.01172 4.83548 3.49163 3.75391 4.36523C2.67233 5.23884 2.01172 6.53322 2.01172 7.94727C2.01172 10.6908 4.46871 12.8145 7.7168 12.9414C7.80841 12.9707 7.90382 12.9865 8 12.9883C9.75357 12.9883 11.2462 12.4743 12.3125 11.5645C13.3788 10.6546 13.9883 9.34294 13.9883 7.94727C13.9881 7.92902 13.9875 7.91079 13.9863 7.89258C13.8323 5.13168 11.3748 3.01172 8 3.01172ZM8 4.98828C10.6091 4.98828 11.8959 6.26934 12.0059 7.97266C11.9988 8.80493 11.6766 9.5119 11.0312 10.0625C10.3788 10.6192 9.37143 11.0117 8 11.0117C5.39805 11.0117 3.98828 9.59917 3.98828 7.94727C3.98828 7.12131 4.32767 6.44224 4.99609 5.90234C5.66452 5.36245 6.68739 4.98828 8 4.98828ZM3 15C2.73479 15 2.48045 15.1054 2.29292 15.2929C2.10539 15.4805 2.00003 15.7348 2 16V45C2.00003 45.2652 2.10539 45.5195 2.29292 45.7071C2.48045 45.8946 2.73479 46 3 46H13C13.2652 46 13.5195 45.8946 13.7071 45.7071C13.8946 45.5195 14 45.2652 14 45V35.6641V16C14 15.7348 13.8946 15.4805 13.7071 15.2929C13.5195 15.1054 13.2652 15 13 15H3ZM18 15C17.7348 15 17.4805 15.1054 17.2929 15.2929C17.1054 15.4805 17 15.7348 17 16V45C17 45.2652 17.1054 45.5195 17.2929 45.7071C17.4805 45.8946 17.7348 46 18 46H28C28.2652 46 28.5195 45.8946 28.7071 45.7071C28.8946 45.5195 29 45.2652 29 45V29V28.75V28.5C29 26.5556 30.5556 25 32.5 25C34.4444 25 36 26.5556 36 28.5V45C36 45.2652 36.1054 45.5195 36.2929 45.7071C36.4805 45.8946 36.7348 46 37 46H47C47.2652 46 47.5195 45.8946 47.7071 45.7071C47.8946 45.5195 48 45.2652 48 45V28C48 23.8735 46.7879 20.6045 44.7441 18.375C42.7004 16.1455 39.8492 15 36.7871 15C32.8829 15 30.5216 16.4261 29 17.6016V16C29 15.7348 28.8946 15.4805 28.7071 15.2929C28.5195 15.1054 28.2652 15 28 15H18ZM4 17H12V35.6641V44H4V17ZM19 17H27V19.6387C27.0001 19.841 27.0615 20.0386 27.1762 20.2053C27.2909 20.372 27.4535 20.4999 27.6424 20.5723C27.8314 20.6447 28.0378 20.658 28.2345 20.6106C28.4312 20.5632 28.6089 20.4572 28.7441 20.3066C28.7441 20.3066 31.7098 17 36.7871 17C39.36 17 41.6155 17.9223 43.2695 19.7266C44.9235 21.5309 46 24.2615 46 28V44H38V28.5C38.0013 28.3589 37.9726 28.2191 37.916 28.0898C37.6941 25.2641 35.3803 23 32.5 23C29.4744 23 27 25.4744 27 28.5V28.75V29V44H19V17Z" fill="#EADFDF"/>
</svg>
